<?xml version="1.0" encoding="utf-8"?>
<!-- Generator: Adobe Illustrator 16.0.0, SVG Export Plug-In . SVG Version: 6.00 Build 0)  -->
<!DOCTYPE svg PUBLIC "-//W3C//DTD SVG 1.1//EN" "http://www.w3.org/Graphics/SVG/1.1/DTD/svg11.dtd">
<svg version="1.1" id="Layer_1" xmlns="http://www.w3.org/2000/svg" xmlns:xlink="http://www.w3.org/1999/xlink" x="0px" y="0px"
	 width="512px" height="512px" viewBox="0 0 512 512" enable-background="new 0 0 512 512" xml:space="preserve">
<g>
	<path fill="#EA4959" d="M491.865,156.338C472.399,110.337,440,71.342,399.168,43.745c-40.801-27.599-90.305-43.768-143.164-43.75
		c-35.218-0.007-69.01,7.163-99.662,20.138C110.341,39.599,71.345,72,43.75,112.834C16.151,153.638-0.018,203.139,0,256
		c-0.007,35.218,7.163,69.01,20.138,99.662c19.466,46.001,51.866,84.999,92.701,112.593c40.803,27.598,90.306,43.768,143.165,43.75
		c35.219,0.008,69.01-7.162,99.662-20.139c45.999-19.467,84.993-51.867,112.589-92.7C495.85,358.363,512.018,308.859,512,256
		C512.007,220.782,504.837,186.993,491.865,156.338z M406.677,319.631c-12.375,29.284-33.171,54.343-59.289,71.981
		c-26.151,17.637-57.359,27.88-91.384,27.897c-22.703-0.007-44.093-4.575-63.631-12.831c-29.281-12.375-54.343-33.17-71.981-59.293
		C102.756,321.233,92.513,290.024,92.495,256c0.007-22.704,4.575-44.093,12.831-63.631c12.375-29.284,33.171-54.343,59.293-71.981
		c26.152-17.637,57.362-27.879,91.386-27.897c22.704,0.007,44.094,4.575,63.629,12.831c29.281,12.375,54.339,33.17,71.977,59.291
		c17.635,26.151,27.878,57.363,27.896,91.388C419.499,278.704,414.93,300.093,406.677,319.631z"/>
	<path opacity="0.1" d="M255.996,512.005c-35.219,0.01-69.01-7.162-99.662-20.139c-45.999-19.469-84.993-51.869-112.588-92.698
		C16.151,358.363-0.018,308.859,0,256c-0.007-35.218,7.163-69.01,20.136-99.662C39.602,110.339,72,71.342,112.833,43.745
		c40.8-27.599,90.304-43.768,143.163-43.75v46.245c-29.126,0.009-56.567,5.869-81.628,16.462
		c-37.565,15.873-69.708,42.55-92.337,76.062C59.413,172.312,46.27,212.354,46.248,256c0.007,29.126,5.867,56.562,16.458,81.629
		c15.877,37.566,42.553,69.714,76.058,92.341c33.549,22.627,73.584,35.766,117.232,35.787"/>
	<path opacity="0.1" d="M255.996,92.493c34.024,0.018,65.234,10.26,91.386,27.896c26.123,17.639,46.918,42.697,59.293,71.982
		c8.256,19.537,12.824,40.927,12.831,63.631c-0.018,34.023-10.261,65.233-27.897,91.386c-17.639,26.122-42.699,46.918-71.981,59.292
		c-19.538,8.256-40.927,12.824-63.631,12.831v46.249c29.124-0.01,56.565-5.867,81.629-16.461
		c37.562-15.873,69.714-42.554,92.341-76.062c22.625-33.55,35.766-73.587,35.788-117.234c-0.007-29.127-5.869-56.565-16.46-81.631
		c-15.878-37.567-42.554-69.713-76.067-92.342c-33.547-22.625-73.584-35.763-117.23-35.788"/>
</g>
</svg>
